<svg width="327" height="160" viewBox="0 0 327 160" fill="none" xmlns="http://www.w3.org/2000/svg">
<path d="M33.9823 137.438H59.5347L81.156 115.817L68.3798 103.041L33.9823 137.438Z" fill="#20BCB9"/>
<path d="M0.567474 132.524L48.7241 84.3677L61.9917 97.6353L0.567474 159.06V132.524Z" fill="#009490"/>
<path d="M0 122.281V81.9867L18.673 63.3137V103.608L0 122.281Z" fill="#20BCB9"/>
<path d="M26.5353 96.7284V19.0882L45.2082 0.415283V78.0555L26.5353 96.7284Z" fill="#009490"/>
<path d="M70.7607 18.673V59.95L52.0877 41.2771V0L70.7607 18.673Z" fill="#20BCB9"/>
<path d="M52.0877 78.0554L108.107 134.074V108.522L52.0877 52.5029V78.0554Z" fill="#009490"/>
<path d="M164.81 92.6094H144.384L138.196 104H127.298L156.443 52.4609H168.22L176.587 104H166.532L164.81 92.6094ZM163.509 84.0312L160.521 63.2891L148.075 84.0312H163.509Z" fill="black"/>
<path d="M182.95 104L193.743 52.4609H203.798L193.04 104H182.95Z" fill="black"/>
<path d="M210.548 66.6641H220.111L219.302 70.4961C221.341 68.8086 223.251 67.6016 225.032 66.875C226.814 66.1484 228.724 65.7852 230.763 65.7852C234.677 65.7852 237.818 67.1328 240.185 69.8281C242.575 72.5234 243.771 76.543 243.771 81.8867C243.771 88.6133 241.72 94.2969 237.618 98.9375C234.103 102.898 229.943 104.879 225.138 104.879C220.193 104.879 216.454 102.875 213.923 98.8672L209.88 118.238H199.79L210.548 66.6641ZM216.63 88.0742C216.63 90.9805 217.333 93.2422 218.739 94.8594C220.169 96.4531 221.845 97.25 223.767 97.25C225.431 97.25 227.036 96.6523 228.583 95.457C230.13 94.2383 231.407 92.2344 232.415 89.4453C233.446 86.6328 233.962 84.0312 233.962 81.6406C233.962 78.8516 233.294 76.7188 231.958 75.2422C230.622 73.7422 228.923 72.9922 226.861 72.9922C224.939 72.9922 223.181 73.6836 221.587 75.0664C220.017 76.4258 218.798 78.4414 217.931 81.1133C217.064 83.7617 216.63 86.082 216.63 88.0742Z" fill="black"/>
<path d="M257.306 104H247.216L258.009 52.4609H268.099L264.232 70.8125C266.505 69.0312 268.626 67.7539 270.595 66.9805C272.564 66.1836 274.673 65.7852 276.923 65.7852C279.946 65.7852 282.337 66.6523 284.095 68.3867C285.853 70.1211 286.732 72.3945 286.732 75.207C286.732 76.707 286.403 79.0273 285.747 82.168L281.177 104H271.087L275.763 81.7461C276.255 79.332 276.501 77.7852 276.501 77.1055C276.501 75.8633 276.114 74.8672 275.341 74.1172C274.568 73.3672 273.513 72.9922 272.177 72.9922C270.489 72.9922 268.872 73.5781 267.325 74.75C265.31 76.2969 263.775 78.1953 262.72 80.4453C262.134 81.6875 261.361 84.6055 260.4 89.1992L257.306 104Z" fill="black"/>
<path d="M305.329 77.2461L295.486 76.4023C296.611 73.0742 298.568 70.4727 301.357 68.5977C304.169 66.7227 307.884 65.7852 312.501 65.7852C317.306 65.7852 320.857 66.7578 323.153 68.7031C325.45 70.625 326.599 72.9805 326.599 75.7695C326.599 76.8945 326.493 78.0898 326.282 79.3555C326.095 80.6211 325.403 83.9492 324.208 89.3398C323.224 93.793 322.732 96.9102 322.732 98.6914C322.732 100.285 323.013 102.055 323.575 104H313.767C313.368 102.641 313.122 101.234 313.028 99.7812C311.552 101.422 309.853 102.688 307.931 103.578C306.009 104.445 304.075 104.879 302.13 104.879C299.036 104.879 296.482 103.871 294.466 101.855C292.45 99.8164 291.443 97.2031 291.443 94.0156C291.443 90.4531 292.544 87.6055 294.747 85.4727C296.974 83.3398 300.935 82.0508 306.63 81.6055C311.435 81.207 314.646 80.7266 316.263 80.1641C316.685 78.7578 316.896 77.6328 316.896 76.7891C316.896 75.7109 316.462 74.8086 315.595 74.082C314.728 73.3555 313.439 72.9922 311.728 72.9922C309.923 72.9922 308.493 73.3672 307.439 74.1172C306.407 74.8438 305.704 75.8867 305.329 77.2461ZM314.927 86.5977C314.318 86.7617 313.509 86.9141 312.501 87.0547C307.439 87.6641 304.134 88.5547 302.587 89.7266C301.486 90.5703 300.935 91.707 300.935 93.1367C300.935 94.3086 301.357 95.3047 302.2 96.125C303.044 96.9219 304.157 97.3203 305.54 97.3203C307.064 97.3203 308.493 96.957 309.829 96.2305C311.189 95.4805 312.196 94.5312 312.853 93.3828C313.532 92.2109 314.13 90.3945 314.646 87.9336L314.927 86.5977Z" fill="black"/>
</svg>
