<svg viewBox="0 0 255.6 186" xmlns="http://www.w3.org/2000/svg">
<style type="text/css">
	.st1{fill:#E31E25}
	.st2{fill:#312928}
	.st3{fill:#2B2C23}
	.st4{fill:#FCFCFC}
	.st5{fill:#2D2B29}
	.st6{fill:#FDFCFC}
	.st7{fill:#2C2A29}
	.st8{fill:#FDFDFD}
	.st9{fill:#E21E25}
	.st10{fill:#E31E24}
	.st11{fill:#2D2C2B}
	.st12{fill:#2B2B2B}
	.st13{fill:#2C2C2C}
	.st14{fill:#2C2B2A}
	.st15{fill:#34322F}
	.st16{fill:#FCFDFD}
	.st17{fill:#FAFAF9}
	.st18{fill:#FAFAFA}
</style>
<g>
	<path class="st1" d="M127.4,1.7c36,0,72.1,0,108.1,0c4.7,0,8.8,1.3,12.3,4.5c3.6,3.3,5.3,7.5,5.4,12.4c0,0.9,0,1.8,0,2.6
		c0,48.1,0,96.3,0,144.4c0,7.4-3.1,12.9-9.8,16.3c-2.1,1.1-4.4,1.6-6.8,1.6c-1.2,0-2.4,0-3.6,0c-71.1,0-142.2,0-213.3,0
		c-5.9,0-10.8-1.9-14.5-6.6c-2.2-2.8-3.4-6.1-3.5-9.7c0-1,0-2,0-3c0-47.8,0-95.6,0-143.3c0-3.3,0.2-6.6,1.8-9.7
		c2.9-5.6,7.5-8.9,13.9-9.4c1-0.1,2-0.1,3-0.1C56,1.7,91.7,1.7,127.4,1.7z"/>
	<path class="st2" d="M45,37c0.6-0.3,1.2-0.6,1.9-0.8c0.1,0.1,0.3,0.2,0.4,0.2c0.2,0,0.3,0,0.5,0.1c-0.1-0.1-0.4-0.3-0.4-0.4
		c1-0.4,1.9-0.4,2.8-0.5c1.8-0.2,3.7-0.2,5.5-0.2c48.5,0,97.1,0,145.6,0c4.6,0,8.9,1.1,12.3,4.3c2.3,2.2,3.9,4.8,4.8,7.9
		c0.5,1.8,0.4,3.5,0.4,5.3c0,26.7,0,53.3,0,80c0,5.2-1.9,9.4-5.8,12.8c-1,0.9-2.1,1.6-3.4,2.1c-0.1,0-0.2,0-0.2,0
		c-0.8-0.4-1.3,0-1.7,0.7c-0.2,0.5-0.6,0.4-1,0.4c-0.2-0.2-0.5-0.2-0.8-0.2c-0.3,0-0.7,0.1-0.9-0.3c-0.2-0.3,0.2-0.5,0.4-0.6
		c0.5-0.3-0.4-0.7,0.2-1c2.1-0.8,4.2-1.6,5.9-3.1c2.9-2.6,4.6-5.9,4.8-9.8c0-0.4,0-0.9,0-1.3c0-26.7-0.1-53.5,0.1-80.2
		c0-7.5-5.4-14.6-14.6-14.6c-19.4,0-38.9,0-58.3,0c-30,0-60,0-89.9,0c-2.1,0-4.1,0.4-6.2,0.6c-0.6-0.2-1.1-0.5-1.8-0.2
		c-0.4,0.2-0.9,0.3-1.2-0.1C44.3,37.6,44.9,37.3,45,37z"/>
	<path class="st3" d="M45,37c0.2,0.4-0.5,0.8-0.2,1.1c0.3,0.3,0.6-0.1,0.9-0.2c0.6-0.2,1.2-0.3,1.5,0.4c-0.1,0.6-0.7,0.7-1.1,1
		c-5.3,2.8-8.1,7.2-8.1,13.2c0,26.9,0,53.7,0,80.6c0,6.5,4.1,12,10.2,13.6c1.5,0.4,3,0.6,4.5,0.6c49.7,0,99.4,0,149.1,0
		c0.7,0,1.4,0,2.2-0.1c0.5-0.1,1-0.1,1.5,0.3c0.3,0.2,0.7,0.2,0.9,0.6c-0.3,0.3-0.8,0.1-1,0.5c0.4,0.4,1.2-0.3,1.4,0.6
		c-2.5,0.8-5,0.5-7.5,0.5c-49.1,0-98.2,0-147.3,0c-6.3,0-11-2.9-14.3-8.2c-1.5-2.4-2.2-5.1-2.2-7.9c0-27.3-0.1-54.7,0-82
		c0-5.1,2.4-9.3,6.3-12.5C42.8,38.1,43.9,37.3,45,37z"/>
	<path class="st3" d="M207.9,148.6c-0.2-0.1-0.5-0.1-0.4-0.3c0.2-0.3,1.2-0.2,0.2-0.9c-0.2-0.1,0.4-0.3,0.6-0.2
		c0.5,0.2,1,0.5,1.4,0.7C209.1,148.1,208.6,148.6,207.9,148.6z"/>
	<path class="st3" d="M47.4,36.1c0.4,0,0.9,0.2,1.4,0.2c0,0.1,0,0.2,0,0.4c-0.6-0.1-1.2,0.4-1.7-0.4C47.1,36.1,47.3,36.1,47.4,36.1z
		"/>
	<path class="st4" d="M205.6,147.3c-2.9,0.3-5.9,0.2-8.9,0.2c-48.1,0-96.2,0-144.3,0c-7.1,0-12.7-4.3-14.3-11
		c-0.3-1.1-0.4-2.3-0.4-3.4c0-27.1,0-54.2,0-81.3c0-6.2,3.1-10.6,8.7-13.2c0.3-0.1,0.6-0.3,0.9-0.4c2.6-0.8,5.2-0.7,7.8-0.7
		c49,0,98,0,147.1,0c7.1,0,12.7,4.3,14.4,10.9c0.3,1,0.4,2.1,0.4,3.2c0,27.2,0,54.5,0,81.7c0,6.7-4.3,12.1-10.8,13.8
		C206,147.2,205.8,147.2,205.6,147.3z"/>
	<path class="st5" d="M127.4,39.6c23.9,0,47.8,0,71.7,0c7.9,0,14,4.9,15.5,12.4c0.2,1,0.3,2.1,0.3,3.1c0,24.9,0,49.8,0,74.7
		c0,9-6.6,15.6-15.6,15.6c-48,0-96,0-144.1,0c-8.8,0-15.3-6.4-15.6-15.2c0-0.9,0-1.8,0-2.8c0-23.8,0-47.6,0-71.4
		c0-3.7,0.6-7.1,2.8-10.1c2.9-4,6.9-6.2,11.8-6.5c0.7,0,1.4,0,2,0C80.1,39.6,103.7,39.6,127.4,39.6z"/>
	<path class="st6" d="M127.4,41.6c24,0,48,0,72,0c6.4,0,11.5,3.9,13.2,10c0.3,1.1,0.4,2.2,0.4,3.3c0,25.1,0,50.1,0,75.2
		c0,7.5-5.7,13.2-13.1,13.4c-0.8,0-1.5,0-2.3,0c-47.3,0-94.7,0-142,0c-7.1,0-12.5-4.6-13.6-11.5c-0.1-0.7-0.1-1.4-0.1-2
		c0-24.9,0-49.9,0-74.8c0-7.7,5.8-13.5,13.5-13.5c12.7,0,25.4,0,38.1,0C104.7,41.6,116.1,41.6,127.4,41.6z"/>
	<path class="st7" d="M127.4,43.6c23,0,45.9,0,68.9,0c7.2,0,12.7,4.4,14.3,11.4c0.3,1.1,0.3,2.2,0.3,3.3c0,22.8,0,45.7,0,68.5
		c0,8.3-6.2,14.5-14.6,14.5c-45.9,0-91.9,0-137.8,0c-8.5,0-14.7-6.1-14.7-14.6c0-22.8,0-45.7,0-68.5c0-7.5,4.6-13,12-14.5
		c1-0.2,2.1-0.2,3.1-0.2C81.7,43.6,104.6,43.6,127.4,43.6z"/>
	<path class="st8" d="M127.4,45.6c23,0,45.9,0,68.9,0c5.8,0,10.6,3.6,12.1,9.1c0.3,1.1,0.4,2.3,0.4,3.4c0,22.9,0,45.8,0,68.7
		c0,7.2-5.3,12.5-12.6,12.5c-45.8,0-91.7,0-137.5,0c-6.8,0-11.7-4.1-12.8-10.6c-0.1-0.6-0.1-1.2-0.1-1.8c0-23,0-46,0-69
		c0-7,5.4-12.4,12.4-12.4C81.3,45.6,104.4,45.6,127.4,45.6C127.4,45.6,127.4,45.6,127.4,45.6z"/>
	<path class="st9" d="M91.3,86.8c0.3,0.1,0.5,0.2,0.6,0.3c4.3,1.9,6.4,5.5,6.2,10.2c-0.4,6.9-4.7,10.1-10.6,11.4
		c-2.6,0.5-5.2,0.7-7.7,0.7c-6.4,0-12.9,0-19.3,0c-0.9,0-1.1-0.2-1.1-1.1c0-13.4,0-26.8,0-40.2c0-0.7,0-1.1,0.9-1.1
		c7.7,0.1,15.4-0.2,23.1,0.2c2.6,0.1,5.1,0.6,7.4,1.6c6.7,2.8,6.7,10.2,4.3,14C94.1,84.4,92.8,85.6,91.3,86.8z"/>
	<path class="st9" d="M139.5,78.2c0.2,0.2,0.2,0.2,0.3,0.2c5,1.4,6.6,5.1,6.6,9.9c0,2.2,0,4.3,0.1,6.5c0,0.8,0.1,1.7,1.1,2.1
		c0.5,0.2,0.3,0.6,0.3,0.9c0,0.5-0.4,0.4-0.7,0.4c-4.2,0-8.5,0-12.7,0c-0.9,0-0.8-0.6-0.9-1.1c-0.3-2.2-0.4-4.4-0.5-6.6
		c0-1.2,0-2.4-0.3-3.6c-0.4-1.7-1.5-2.8-3.2-3.1c-2.4-0.5-4.9-0.4-7.4-0.4c-0.9,0-0.7,0.6-0.7,1.1c0,4.1,0,8.2,0,12.2
		c0,1.1-0.2,1.5-1.4,1.5c-3.8-0.1-7.7,0-11.5,0c-0.7,0-1-0.1-1-1c0-13.4,0-26.9,0-40.3c0-0.8,0.2-1.1,1.1-1.1
		c7.6,0.1,15.2,0,22.8,0.1c2.8,0,5.5,0.5,8.1,1.4c3.6,1.3,6,3.7,6.6,7.7c0.5,3.6,0.3,7.1-2.1,10.1C142.8,76.6,141.3,77.5,139.5,78.2
		z"/>
	<path class="st10" d="M188.9,83.2c-1.8,0-3.7,0-5.5,0c-0.8,0-1-0.3-1.2-1c-1.1-5-6-7.5-10.6-5.3c-2.4,1.2-3.5,3.4-4,5.8
		c-0.9,3.7-0.9,7.5-0.1,11.3c1.2,5.2,7,7.7,11.6,5c1.8-1.1,2.7-2.9,3.1-4.9c0.2-1.1,0.7-1.3,1.6-1.3c3.6,0,7.2,0,10.8,0
		c1,0,1.2,0.3,1,1.3c-1.4,9.2-8.3,15.5-17.8,16.2c-5.6,0.4-10.9-0.4-15.7-3.5c-5.2-3.4-7.9-8.4-8.7-14.4c-0.9-6.3-0.2-12.3,3.4-17.7
		c3.5-5.3,8.5-8.1,14.7-8.8c5-0.5,10,0,14.6,2.4c5.5,2.8,8.3,7.6,9.2,13.6c0.1,0.9-0.1,1.3-1.1,1.2
		C192.5,83.2,190.7,83.2,188.9,83.2z"/>
	<path class="st11" d="M155.9,127.4c0.9-2.7,1.9-5.5,2.7-8.3c0.5-1.7,1.7-1,2.6-1c1,0,0.5,0.9,0.5,1.4c0.1,2.8,0,5.6,0,8.4
		c0,0.5,0,0.9-0.7,0.9c-0.7,0-0.9-0.2-0.9-0.9c0-2.4,0-4.9,0-7.3c0-0.4,0-0.8,0-1.1c-0.1,0-0.1,0-0.2,0c-0.9,2.7-1.8,5.5-2.7,8.2
		c-0.2,0.7-0.4,1.2-1.3,1.2c-0.9,0-1.1-0.5-1.3-1.2c-0.9-2.8-1.8-5.6-2.9-8.3c0,2.8,0,5.6,0,8.5c0,0.5,0.1,1-0.7,1
		c-0.9,0-0.9-0.4-0.8-1c0-2.9,0-5.8,0-8.6c0-0.7,0.1-1,1-1.1c1.4-0.1,2,0.3,2.4,1.7C154.1,122.3,155.1,124.9,155.9,127.4z"/>
	<path class="st12" d="M181.9,127.4c0-2.8,0-5.5,0-8.3c0-0.5-0.2-1.1,0.8-1.1c1,0,0.7,0.6,0.7,1.1c0,2.8,0,5.6,0,8.4
		c0,0.4,0.4,1.2-0.4,1.1c-0.8,0-1.9,0.6-2.5-0.7c-1.2-2.8-2.5-5.5-3.7-8.3c-0.1-0.1-0.2-0.2-0.4-0.5c0,3,0,5.7,0,8.5
		c0,0.6,0.1,1.1-0.8,1.1c-0.9,0-0.7-0.5-0.7-1c0-2.8,0-5.7,0-8.5c0-0.4-0.4-1.2,0.4-1.1c0.8,0,1.9-0.6,2.4,0.6
		c1.2,2.7,2.4,5.4,3.6,8.1c0.1,0.2,0.2,0.5,0.3,0.7C181.8,127.4,181.8,127.4,181.9,127.4z"/>
	<path class="st13" d="M119,128.6c-0.3,0.5-0.7,0.7-1.3,0.2c-0.5-0.5-1.1-0.4-1.7-0.2c-3.5,1.3-6.1-0.4-6.4-4.1
		c-0.1-1.3-0.1-2.6,0.2-3.8c0.6-2.1,2.1-2.9,4.8-2.8c2.1,0.1,3.5,1.2,3.9,3.2c0.4,2,0.3,4-0.5,5.9
		C117.5,128.1,118.9,127.8,119,128.6z"/>
	<path class="st13" d="M68.2,127.5c-1.5,1.7-3.3,1.7-5.1,1.1c-1.8-0.6-2.3-2.1-2.4-3.8c-0.1-1.4-0.2-2.9,0.3-4.3
		c0.6-1.8,2-2.8,4.1-2.8c2.2,0,3.6,0.7,4.1,2.3c0.1,0.4,0.5,0.9-0.2,1c-0.5,0.1-1.1,0.3-1.3-0.6c-0.3-1.2-1.2-1.7-2.5-1.7
		c-1.4,0-2.4,0.7-2.7,1.9c-0.4,1.7-0.4,3.5,0,5.2c0.4,1.5,1.8,2.2,3.4,1.8c1.4-0.3,2.2-1.7,2.1-3.1c-0.1-0.5-0.3-0.4-0.6-0.4
		c-0.6,0-1.3,0-1.9,0c-0.4,0-0.6-0.1-0.6-0.5c0-0.4,0.2-0.6,0.6-0.6c1.2,0,2.3,0,3.5,0c0.6,0,0.6,0.3,0.6,0.8c0,1.3,0,2.6,0,4
		c0,0.4,0.2,0.8-0.5,0.9c-0.7,0-0.7-0.4-0.6-0.8C68.3,127.9,68.3,127.8,68.2,127.5z"/>
	<path class="st13" d="M88.2,129c-2.4,0-3.8-0.8-4.1-2.5c-0.1-0.4-0.5-1.1,0.4-1.2c0.7-0.1,1.1,0.1,1.1,0.9c0.1,1.3,1.4,1.9,3.2,1.6
		c1.4-0.2,2.2-1,2-2.2c-0.1-0.8-0.6-1.2-1.4-1.5c-1.2-0.3-2.4-0.7-3.5-1.1c-1-0.3-1.6-1-1.7-2.1c-0.1-1.1,0.3-2,1.2-2.5
		c1.8-1,3.7-1,5.5,0c0.5,0.2,0.8,0.7,0.9,1.2c0.1,0.4,0.5,0.9-0.1,1.1c-0.5,0.1-1.1,0.4-1.3-0.6c-0.2-1-1.3-1.4-2.7-1.2
		c-1,0.1-1.8,0.4-1.9,1.6c-0.1,0.9,0.3,1.4,1.2,1.7c1.1,0.3,2.3,0.7,3.4,1.1c1.2,0.4,2,1.1,2,2.5c-0.1,1.4-0.7,2.4-2.1,2.9
		C89.6,128.9,88.9,128.9,88.2,129z"/>
	<path class="st11" d="M81.5,128.7c-0.7,0.2-0.9-0.3-1.1-0.9c-0.8-2.2-0.8-2.2-3.2-2.2c-0.3,0-0.6,0-0.8,0c-0.9-0.1-1.3,0.2-1.5,1.1
		c-0.1,0.5-0.3,0.9-0.4,1.4c-0.2,1-1,0.8-1.5,0.6c-0.7-0.2-0.1-0.7,0-1c1.1-3,2.2-5.9,3.2-8.8c0.2-0.7,0.6-0.8,1.2-0.8
		c0.6,0,1.1-0.1,1.4,0.7c1.1,3.1,2.2,6.1,3.4,9.2C82.4,128.7,82.1,128.7,81.5,128.7z"/>
	<path class="st13" d="M130.1,122.6c0,1,0,2.1,0,3.1c0,1.9-0.8,2.8-2.6,3.1c-0.9,0.2-1.9,0.1-2.9,0c-1.9-0.3-2.8-1.2-2.8-3.2
		c0-2.2,0-4.5,0-6.7c0-0.6,0.1-0.9,0.8-0.9c0.7,0,0.7,0.4,0.7,0.9c0,2.2,0,4.4,0,6.6c0,1.7,0.8,2.4,2.7,2.4c1.8,0,2.6-0.7,2.6-2.3
		c0-2,0-4.1,0-6.1c0-0.5-0.5-1.5,0.8-1.4c1.3,0,0.6,1,0.7,1.5C130.2,120.5,130.1,121.6,130.1,122.6z"/>
	<path class="st13" d="M139.5,123.3c0-1.5,0-3,0-4.4c0-0.3-0.1-0.8,0.4-0.8c1.8,0.1,3.6-0.2,5.4,0.2c1.4,0.4,2.2,1.3,2.2,2.7
		c0,1.5-0.7,2.5-2.2,2.9c-1.1,0.3-2.3,0.3-3.5,0.2c-0.7,0-0.9,0.2-0.9,0.9c0.1,1,0,1.9,0,2.9c0,0.6-0.2,0.8-0.8,0.8
		c-0.6,0-0.7-0.2-0.7-0.8C139.5,126.4,139.5,124.8,139.5,123.3z"/>
	<path class="st14" d="M165.1,123.3c0-1.5,0-3,0-4.4c0-0.6,0.1-0.9,0.8-0.8c1.8,0,3.6,0,5.4,0c0.4,0,0.8-0.1,0.8,0.5
		c0,0.7-0.5,0.5-0.9,0.5c-1.2,0-2.5,0-3.7,0c-0.7,0-0.9,0.2-0.9,0.9c0,2.7-0.1,2.7,2.6,2.7c0.6,0,1.3,0,1.9,0c0.4,0,0.6,0.1,0.6,0.5
		c0,0.4-0.2,0.5-0.6,0.5c-1.2,0-2.4,0-3.6,0c-0.6,0-0.9,0.1-0.9,0.8c-0.1,3.1-0.1,3.1,3,3.2c0.6,0,1.3,0,1.9,0
		c0.4,0,0.6,0.1,0.6,0.5c0,0.3-0.1,0.5-0.5,0.5c-2,0-4.1,0-6.1,0c-0.5,0-0.4-0.4-0.4-0.7C165.1,126.4,165.1,124.9,165.1,123.3z"/>
	<path class="st14" d="M100,123.4c0-1.5,0-3,0-4.6c0-0.5,0.1-0.8,0.7-0.8c1.8,0,3.7,0,5.5,0c0.3,0,0.7-0.1,0.8,0.5
		c0,0.7-0.4,0.5-0.8,0.5c-1.3,0-2.6,0-3.8,0c-0.6,0-0.8,0.2-0.8,0.8c-0.1,2.8-0.1,2.8,2.6,2.8c0.5,0,1,0,1.6,0c0.4,0,0.9-0.3,1,0.5
		c0,0.8-0.5,0.5-0.9,0.6c-1.1,0-2.2,0-3.4,0c-0.6,0-0.8,0.2-0.8,0.8c-0.1,3.2-0.1,3.2,3,3.2c0.7,0,1.4,0,2,0c0.3,0,0.5,0.1,0.5,0.5
		c0,0.3-0.1,0.5-0.5,0.5c-2,0-4.1,0-6.1,0c-0.6,0-0.4-0.5-0.4-0.8C100,126.4,100,124.9,100,123.4z"/>
	<path class="st12" d="M190.8,124c0,1.3,0,2.6,0,4c0,0.5-0.1,0.8-0.7,0.8c-0.6,0-0.9-0.1-0.8-0.8c0-2.6,0-5.2,0-7.8
		c0-0.8-0.2-1.2-1.1-1.1c-0.6,0.1-1.3,0-1.9,0c-0.3,0-0.6,0-0.6-0.5c0-0.4,0.2-0.6,0.6-0.6c2.6,0,5.1,0,7.7,0c0.3,0,0.5,0.1,0.5,0.5
		c0,0.4-0.2,0.6-0.6,0.5c-0.2,0-0.3,0-0.5,0c-2.6,0-2.6,0-2.6,2.6C190.8,122.5,190.8,123.2,190.8,124z"/>
	<path class="st15" d="M135.6,123.5c0,1.5,0,3,0,4.4c0,0.6-0.2,0.8-0.8,0.8c-0.6,0-0.8-0.2-0.8-0.8c0-3,0-6.1,0-9.1
		c0-0.7,0.3-0.7,0.9-0.7c0.6,0,0.8,0.2,0.7,0.8C135.6,120.4,135.6,121.9,135.6,123.5z"/>
	<path class="st8" d="M73.1,95.5c0-1,0-2.1,0-3.1c0-0.6,0.2-0.8,0.8-0.8c2.6,0.1,5.3-0.2,7.9,0.3c2.4,0.4,3.5,1.7,3.4,4
		c-0.1,1.7-1,2.8-2.7,3.2c-2.9,0.7-5.9,0.3-8.8,0.4c-0.6,0-0.5-0.5-0.5-0.9C73.1,97.6,73.1,96.6,73.1,95.5
		C73.1,95.5,73.1,95.5,73.1,95.5z"/>
	<path class="st16" d="M77.2,76.9c1.2,0.1,2.4,0.1,3.6,0.2c1.5,0.1,2.6,1,2.8,2.2c0.3,1.9-0.3,3.3-1.7,4.1c-0.8,0.4-1.7,0.6-2.7,0.6
		c-1.7,0-3.4,0-5,0c-0.7,0-1-0.2-1-0.9c0.1-1.7,0.1-3.4,0-5.2c0-0.8,0.3-1,1-1C75.2,76.9,76.2,76.9,77.2,76.9
		C77.2,76.9,77.2,76.9,77.2,76.9z"/>
	<path class="st8" d="M121.4,69.9c0-1.1,0-2.2,0-3.4c0-0.6,0.2-0.8,0.8-0.8c2.2,0.1,4.5,0,6.7,0.1c2.8,0.2,4.5,1.8,4.5,4.3
		c0,1.7-0.8,3-2.5,3.5c-3,0.9-6,0.5-9,0.5c-0.6,0-0.5-0.4-0.5-0.8C121.4,72.2,121.4,71,121.4,69.9C121.4,69.9,121.4,69.9,121.4,69.9
		z"/>
	<path class="st8" d="M115.6,127.6c-2.5,0.8-4,0-4.3-2.5c-0.2-1.4-0.2-2.8,0.2-4.2c0.3-1.4,1.2-2.1,2.8-2c1.5,0,2.4,0.7,2.7,2
		c0.4,1.7,0.4,3.3,0,5c-0.1,0.4-0.2,1-0.8,0.5c-0.5-0.4-1.1-0.6-1.4,0.1c-0.2,0.5,0.5,0.5,0.7,0.8
		C115.4,127.3,115.5,127.4,115.6,127.6z"/>
	<path class="st17" d="M77.4,118.9c0.2,0.4,0.3,0.6,0.3,0.9c0.5,1.6,1,3.1,1.5,4.7c-1.2,0-2.4,0-3.6,0
		C76.2,122.7,76.7,120.9,77.4,118.9z"/>
	<path class="st18" d="M141,121c0-2,0-2,1.9-1.9c0.6,0,1.1,0.1,1.7,0.2c0.9,0.2,1.3,0.8,1.3,1.8c0,0.9-0.3,1.5-1.2,1.8
		c-1.1,0.3-2.1,0.2-3.2,0.2c-0.4,0-0.5-0.2-0.5-0.5C141,122.1,141,121.5,141,121z"/>
</g>
</svg>
