<svg id="Слой_1" data-name="Слой 1" xmlns="http://www.w3.org/2000/svg" viewBox="0 0 274.34 42.17"><defs><style>.cls-1{fill:#3099ec;}</style></defs><title>Digitronic</title><path class="cls-1" d="M198,248.57H177.54v41.89H198a11,11,0,0,0,11-11v-19.9a10.53,10.53,0,0,0-6.46-10.1A11.87,11.87,0,0,0,198,248.57Zm.52,31.41H188.05V259h10.47Z" transform="translate(-177.53 -248.48)"/><path class="cls-1" d="M224.51,259.56v19.9a11,11,0,0,0,11,11H256V269.51H245.45V280H235V259h21V248.56H235.5A11,11,0,0,0,224.51,259.56Z" transform="translate(-177.53 -248.48)"/><rect class="cls-1" x="33.99" y="0.02" width="10.52" height="41.94"/><rect class="cls-1" x="80.97" y="0.08" width="10.52" height="41.88"/><rect class="cls-1" x="229.84" y="0.04" width="10.51" height="41.92"/><polygon class="cls-1" points="104.42 10.51 93.95 10.51 93.95 0 125.4 0 125.4 10.51 114.94 10.51 114.94 41.97 104.42 41.97 104.42 10.51"/><path class="cls-1" d="M325.94,248.57H305.48v41.89H316V280h6.48l3.81,10.47h10.51L332.25,278a11,11,0,0,0,4.69-9v-9.43A11,11,0,0,0,325.94,248.57Zm.52,20.94-10.49,0V259h10.49Z" transform="translate(-177.53 -248.48)"/><path class="cls-1" d="M383.9,290.66H373.38v-42.1h20.47a11,11,0,0,1,11,11v30.89H394.36V259H383.9Z" transform="translate(-177.53 -248.48)"/><path class="cls-1" d="M359.71,248.57h-9.42a11.06,11.06,0,0,0-11,9.93h0v21a11,11,0,0,0,11,11h9.42a11,11,0,0,0,11-11v-19.9A11,11,0,0,0,359.71,248.57Zm.52,31.41H349.77V259h10.46Z" transform="translate(-177.53 -248.48)"/><path class="cls-1" d="M420.46,258.92a11,11,0,0,1,11-10.35h20.47V259h-21v21h21v10.47H431.41a11,11,0,0,1-11-11V259.58Z" transform="translate(-177.53 -248.48)"/></svg>