<svg width="34" height="34" viewBox="0 0 34 34" fill="none" xmlns="http://www.w3.org/2000/svg">
<path fill-rule="evenodd" clip-rule="evenodd" d="M18.8636 27.6342L17 29.2614L15.1364 27.6342C8.48032 21.8222 5.1 16.6791 5.1 11.9C5.1 5.1364 10.3759 0 17 0C23.6241 0 28.9 5.1364 28.9 11.9C28.9 16.6791 25.5197 21.8222 18.8636 27.6342ZM6.26544 21.7658C6.96344 22.7214 7.74098 23.6934 8.59771 24.6822C5.43193 25.3953 3.4 26.4072 3.4 27.2C3.4 28.5718 9.48454 30.6 17 30.6C24.5155 30.6 30.6 28.5718 30.6 27.2C30.6 26.4072 28.5681 25.3953 25.4023 24.6822C26.259 23.6934 27.0366 22.7214 27.7346 21.7658C31.5575 22.9258 34 24.7866 34 27.2C34 31.4615 26.3845 34 17 34C7.61555 34 0 31.4615 0 27.2C0 24.7866 2.44246 22.9258 6.26544 21.7658ZM17 3.40001C21.7664 3.40001 25.5 7.03488 25.5 11.9C25.5 15.3798 22.7335 19.662 17 24.7453C11.2665 19.662 8.5 15.3798 8.5 11.9C8.5 7.03488 12.2336 3.40001 17 3.40001ZM17 6.79991C19.8167 6.79991 22.1 9.08326 22.1 11.8999C22.1 14.7166 19.8167 16.9999 17 16.9999C14.1833 16.9999 11.9 14.7166 11.9 11.8999C11.9 9.08326 14.1833 6.79991 17 6.79991ZM15.3 11.9001C15.3 10.9612 16.0611 10.2001 17 10.2001C17.9389 10.2001 18.7 10.9612 18.7 11.9001C18.7 12.839 17.9389 13.6001 17 13.6001C16.0611 13.6001 15.3 12.839 15.3 11.9001Z" fill="#2A4592"/>
</svg>
