<svg width="30" height="31" viewBox="0 0 30 31" fill="none" xmlns="http://www.w3.org/2000/svg">
<path fill-rule="evenodd" clip-rule="evenodd" d="M13.2921 9.50831C14.0693 8.461 14.3479 7.35723 13.469 6.38293C11.4966 3.62296 10.17 1.9162 9.33799 1.09427C7.75615 -0.468329 5.154 -0.256963 3.78401 1.09294C3.04818 1.81798 2.79907 2.06696 2.04352 2.83438C-2.16495 7.04511 0.401594 15.9465 7.22441 22.776C14.0457 29.604 22.9462 32.1719 27.1635 27.9522C27.8607 27.2801 28.451 26.6895 28.9165 26.1974C30.2591 24.7784 30.4629 22.291 28.9077 20.6751C28.1104 19.8466 26.4828 18.5842 23.6067 16.5269C22.7259 15.7392 21.6814 15.9099 20.7239 16.5381C20.2633 16.8403 19.9281 17.146 19.2951 17.7796L18.1458 18.9296C17.9944 19.081 15.9388 18.0516 13.9434 16.0542C11.9469 14.0558 10.9182 12.0001 11.0688 11.8494C11.3796 11.5387 11.7629 11.1551 12.219 10.6986C12.4198 10.4976 12.5158 10.4003 12.6389 10.2709C12.8955 10.0013 13.1078 9.75662 13.2921 9.50831ZM20.2659 21.0509L21.4155 19.9007C21.7639 19.552 21.9896 19.3376 22.1733 19.1898C24.6928 20.9991 26.1519 22.1368 26.7479 22.756C27.1057 23.1278 27.0501 23.8063 26.7391 24.1351C26.3086 24.5901 25.7493 25.1497 25.0629 25.8117C22.3359 28.5399 15.1512 26.467 9.34501 20.6551C3.53704 14.8415 1.46514 7.65567 4.17161 4.94771C4.92411 4.18345 5.16252 3.94516 5.88785 3.23046C6.15981 2.96249 6.9006 2.90232 7.23143 3.22913C7.87203 3.86194 9.06033 5.38347 10.8084 7.81848C10.7179 7.93083 10.6049 8.05779 10.4673 8.20235C10.3664 8.30845 10.2823 8.3937 10.0984 8.57775C9.64267 9.03392 9.25966 9.41714 8.94936 9.72742C6.99464 11.682 8.65935 15.0086 11.8228 18.1751C14.984 21.3395 18.3119 23.006 20.2659 21.0509ZM17.4898 0.105609C23.9748 0.891666 29.1169 6.03374 29.903 12.5187L26.9398 13.0126C26.3677 7.78902 22.2195 3.6409 16.996 3.06876L17.4898 0.105609ZM16.5017 6.03451C20.464 6.3889 23.6197 9.54461 23.9741 13.5069L21.0014 14.0023C20.8753 11.301 18.7076 9.13332 16.0063 9.00718L16.5017 6.03451Z" fill="#E81C2B"/>
</svg>
