<svg viewBox="0 0 336.1 63.3" xmlns="http://www.w3.org/2000/svg" fill="#007DB8">
<g>
	<path d="M0,49.3C5,35,8.6,20.3,12.4,5.7c1.2-4.4,3-5.9,7.5-5.7c8.2,0.3,16.3,0,24.5,0.1c9.7,0.1,14,5.7,11.4,15
		c-1.1,4.2-2.2,8.4-3.6,12.5c-1.7,4.9-5.3,7.5-10.6,7.5c-7.7,0-15.3-0.1-23-0.1c-2.8,0-4,0.8-4.8,3.6c-0.4,1.3-0.7,2.6-1.1,3.8
		c-2.7,9.3-2.7,9.3-12.8,7.8C0,49.9,0,49.6,0,49.3z M32.9,24.7c9.9,0,8.8,1.5,11.7-9.1c0-0.2,0.1-0.3,0.1-0.5c1.1-3,0.2-4.4-3.1-4.3
		c-5.6,0.1-11.3,0-16.9,0c-1.1,0-2.7-0.2-3.1,1c-1.4,4-2.1,7.2-2.9,11.4c-0.3,1.6,4.9,1.4,7.7,1.4"/>
	<path d="M100,63.3c2.5-12.4,6.6-24.4,9.7-36.6c0.8-3.2,1.9-6.4,2.6-9.6c0.5-2,1.4-3.1,3.7-3.2c5.2-0.2,5.5,0,4,5.1
		c-3,10.7-6,21.5-9.1,32.2c-0.9,3.1-0.5,4.2,3.2,4.1c19.1-0.2,38.3-0.1,57.4-0.1c6,0,5.6-0.1,4.6,5.6c-0.1,0.8-0.3,1.6-0.5,2.4
		C150.4,63.2,125.3,63.3,100,63.3z"/>
	<path d="M198.5,1.4c44,0,87.9,0,131.9,0.1c1.9,0,5.1-1.9,5.6,1.8c0.5,4.1-1.8,6.4-6,6.4c-44.5,0-88.9,0.1-133.4-0.1
		c-4.5,0-6.5,0.9-7.8,5.7c-2.7,10.6-5.5,20.8-8.6,31.3c-1,3.4-4.9,5.3-7.9,3.8c-1.6-0.8-0.6-2.6-0.3-3.9c2.9-10.6,6.1-21,9-31.7
		c1.1-3.9,1-5.3-3.8-5.3c-36.6,0.2-73.3,0.1-109.9,0.1c-2,0-4.6,1.2-5.5-2.5c-1.3-5.8-1.6-5.7,4.4-5.7
		C110.2,1.4,154.4,1.4,198.5,1.4z"/>
	<path d="M129.1,50.7c-4.9-0.1-6.4-2-5.2-6.6c2.1-7.9,4.3-15.7,6.5-23.5c1.2-4.4,4.1-6.6,8.8-6.6c8.3,0,16.6-0.1,25,0
		c5.5,0.1,6.8,1.8,5.7,7.2c-2.9,13.8-3.9,14.6-17.7,14.6c-4.8,0-9.7,0.3-14.5-0.1c-4.1-0.3-4.2,2.8-4.5,5.1c-0.5,3.4,2.6,3,4.2,3
		c6.7,0.1,13.5,1.1,19.9-2.4c1.6-0.9,5-1.2,6,0.5c1.2,1.9-0.6,4.4-2.1,6.2c-1.5,1.8-3.4,2.5-5.7,2.5 M140.3,21.8
		c-2.7,0.1-2.7,2.5-3.2,4.4c-0.3,1.1,0,1.9,1.4,1.9c6.5,0,12.9,0.1,19.4-0.2c2.5-0.1,2.8-2.8,2.8-4.6c0-1.8-2.1-1.6-3.5-1.6"/>
	<path d="M254.9,50.6c-4.5,0-9,0-13.5,0c-3.9-0.1-5.5-2.3-4.5-5.9c2.2-8.4,4.5-16.7,7-25c1.1-3.7,4.1-5.6,8-5.7
		c8.8-0.1,17.7-0.1,26.5,0c4.6,0.1,6,2.3,4.7,7c-2,7.4-4.1,14.7-6.2,22.1c-1.6,5.8-3.9,7.5-10.1,7.5
		C262.9,50.7,258.9,50.6,254.9,50.6z M257.3,43.3c13-0.3,10.6,2.2,14-10c3.2-11.6,3.3-11.7-8.9-11.5c-12.4,0.2-10.3-2.2-13.7,10.4
		C245.6,43.3,245.7,43.3,257.3,43.3z"/>
	<path d="M73.6,50.7c-4,0-8,0.1-12,0c-5.5-0.1-6.9-1.8-5.5-7.2c2-7.7,4.1-15.4,6.3-23c1.2-4.1,4-6.4,8.4-6.4c8.6,0,17.3-0.1,25.9,0
		c4.8,0.1,6.3,2,5.1,6.7c-2.1,8-4.5,16-6.8,24c-1.2,4.1-4,5.9-8.1,6C82.5,50.8,78,50.7,73.6,50.7z M76,43.3
		c13.6-0.3,10.5,2.1,14.1-9.8c3.5-11.6,3.3-11.8-8.8-11.7C68,22,71.4,19.5,67.5,32C64,43.2,64.2,43.3,76,43.3z"/>
	<path d="M217.7,37.6c2.9,4.8,5.5,9.1,8.2,13.6c-7.2,1.9-9.3,0.2-12.3-5.2c-1-1.7-2.1-3.4-3-5.1c-2.3-4.5-6.3-3.7-9.9-3.5
		c-3,0.2-3.1,3.2-3.6,5.1c-0.5,1.9-0.8,3.9-1.4,5.8c-1,3.1-4.5,4.6-7.3,3.4c-1.4-0.6-0.9-1.6-0.6-2.4c2.9-10.6,5.9-21.1,8.8-31.7
		c0.6-2.1,2-2.4,3.8-2.4c9,0,18-0.2,26.9,0.1c5.9,0.2,8.5,4.1,7.2,9.9c-2.4,10.9-3.5,11.8-14.5,12.1
		C219.4,37.3,218.9,37.4,217.7,37.6z M222.9,28.8c3.7-0.1,3.7-3.3,3.7-5.5c0-2.5-2.2-1.9-3.7-1.9c-5.6,0-11.3,0-16.9-0.1
		c-4.5-0.1-4.3,3.2-4.5,5.7c-0.1,2,2.6,1.7,4,1.7"/>
	<path d="M317.6,40.4c2.4-8.4,4.4-15.8,6.5-23.1c0.8-2.8,5.7-4.6,8-3.1c1.2,0.8,0.6,1.8,0.3,2.6c-2.8,10.4-5.7,20.8-8.6,31.3
		c-0.5,1.7-1.3,2.8-3.1,2.5c-3-0.6-6.7,1.9-8.9-2.3c-2.9-5.6-6-11.1-9-16.7c-1.1-2-2.2-4-4-7.3c-2.3,8.3-4.3,15.3-6.4,22.3
		c-0.5,1.6-0.2,3.6-2.9,4c-5.6,0.8-6.4,0-4.9-5.5c2.6-9.1,5.1-18.3,7.6-27.4c0.5-1.9,0.8-4.2,3.7-3.7c3,0.5,6.7-1.6,8.8,2.6
		C308.7,24.3,312.9,31.8,317.6,40.4z"/>
</g>
</svg>
