<svg viewBox="0 0 1075 402" xmlns="http://www.w3.org/2000/svg">
<g>
  <path fill="#00579A" d="M804.6,37.4h11.1l3.7-6.7h13.3l1.5,6.7h10.4l-8.1-35.2h-12.8L804.6,37.4z M823.1,22.9l4.1-8.1l0.7-1.6l1-2.6
      l0.2,1.8l0.4,2.2l1.7,8.3H823.1z M738.5,37.4l2.3-13.4l7.3,13.4h11.7l-9.3-13.9c3.3-0.5,5.9-1.7,7.7-3.7c1.9-2,2.8-4.4,2.8-7.3
      c0-2.1-0.5-3.9-1.5-5.5c-1-1.5-2.4-2.7-4.4-3.5c-1.2-0.5-2.4-0.8-3.9-1c-0.8-0.1-1.8-0.2-2.9-0.2c-1.1-0.1-2.4-0.1-3.9-0.1h-10.2
      l-6,35.2H738.5z M741.8,18.2l1.5-9.3h1.5c2.2,0,3.8,0.4,4.8,1c1,0.7,1.5,1.8,1.5,3.3c0,1.6-0.5,2.8-1.6,3.7
      c-1.1,0.8-2.6,1.2-4.6,1.2H741.8z M601,37.4h11.1l3.7-6.7h13.3l1.5,6.7H641l-8.1-35.2h-12.8L601,37.4z M619.6,22.9l4.1-8.1l0.7-1.6
      l1-2.6l0.2,1.8l0.4,2.2l1.7,8.3H619.6z M49.4,393.2h66l13.9-79.8h18.1h10.1c19.8,0,34.5-0.8,44.1-2.7c9.2-1.5,17.2-4.3,23.5-8.1
      c11.8-6.2,21-15.9,27.7-28.3c6.7-12.4,10.1-25.6,10.1-39.9s-3.4-26.7-9.7-37.2c-6.3-10.5-16-18.6-28.2-24.4
      c-7.1-3.5-15.5-5.8-24.8-7c-5.5-0.8-11.3-1.5-18.1-1.9s-14.7-0.4-24.8-0.4H88.9L49.4,393.2z M137.7,264.6l9.2-52.3h11.8
      c13.9,0,24.4,1.9,30.7,5.8c6.7,3.9,10.1,10.1,10.1,18.6c0,10.1-3.8,17.4-11.3,21.7c-8,4.3-22.7,6.2-44.1,6.2H137.7z M674.1,37.4
      h10.2l4.6-27h8.2l1.4-8.2h-26.9l-1.5,8.2h8.6L674.1,37.4z M710.1,29.5l1-5.8h11l1.3-7.7h-11l1-5.8h11.8l1.4-8.1h-22l-6,35.2h22
      l1.4-7.8H710.1z M764.4,37.4h10.2l2.9-17.8l0.3-2.9c0-0.2,0-0.6,0.1-1.1v-1v-1c0.3,1,0.5,1.8,0.8,2.7c0.3,0.8,0.8,1.8,1.4,3.1
      l8.6,17.9h11.2l6-35.2h-10.2l-3,17.3c-0.1,0.8-0.2,1.2-0.2,1.4c0,0.2-0.1,0.7-0.1,1.5c-0.1,0.2-0.1,0.5-0.1,0.9v1.2v0.9
      c-0.2-0.8-0.5-1.5-0.7-2.4c-0.3-0.8-0.7-1.7-1.2-2.6l-0.3-0.8L782,2.2h-11.7L764.4,37.4z M905.3,37.4h8.9l20.2-35.2H923l-10.1,20.1
      l-0.8,1.7l-0.9,2.4l-0.3-2.2l-0.3-1.8l-4.7-20.1h-10.8L905.3,37.4z M944,29.5l1-5.8h11l1.3-7.7h-11l1-5.8h11.8l1.4-8.1h-22l-6,35.2
      h22l1.4-7.8H944z M875.8,93.2h10.3l2.6-15.6L905,58h-11.7l-6.8,8.9c-0.1,0.1-0.1,0.3-0.3,0.5c-0.1,0.2-0.3,0.5-0.3,0.7l-1.2,2.3
      l-0.7-1.8l-0.6-1.6l-4.2-9h-11.4l10.8,19.5L875.8,93.2z M905,81.1l-5.3,7.1c1.8,2,3.8,3.4,6,4.5c2.3,1,4.6,1.5,7.2,1.5
      c4.8,0,8.7-1.1,11.5-3.4c2.8-2.3,4.3-5.3,4.3-9c0-2.1-0.5-3.9-1.6-5.3c-1-1.4-2.9-2.8-5.5-4.2l-2.2-1.1c-2.6-1.2-3.9-2.3-3.9-3.3
      c0-0.8,0.3-1.5,1-2c0.6-0.5,1.5-0.8,2.6-0.8c1,0,2,0.3,3.2,0.8c1.2,0.5,2.4,1.4,3.7,2.4l4.4-6.9c-1.7-1.4-3.6-2.4-5.5-3.1
      c-1.9-0.7-4-1-6.1-1c-4,0-7.3,1.1-9.9,3.3c-2.5,2.3-3.8,5.1-3.8,8.6c0,1.9,0.6,3.5,1.7,4.8c1.1,1.4,3.2,2.7,6.1,4.2l0.7,0.4
      c3.1,1.5,4.6,2.9,4.6,4.2c0,1-0.4,1.7-1.2,2.3c-0.8,0.6-1.8,0.9-3,0.9c-1.5,0-3.1-0.4-4.5-1.1C908.1,83.9,906.7,82.7,905,81.1z
        M938.2,93.2h10.2l4.6-27h8.2l1.4-8.2h-26.9l-1.5,8.2h8.6L938.2,93.2z M974.2,85.4l1-5.8h11l1.3-7.7h-11l1-5.8h11.8l1.4-8.1h-22
      l-6,35.2h22l1.4-7.8H974.2z M990.3,93.2h9.9l5.3-16.8l0.7-2.6c0.2-1,0.5-2,0.6-3l0.4,2.6l0.6,2.6l3.5,17.1h6.2l8.7-17.1l0.4-0.8
      c1-1.8,1.6-3.3,2-4.4l-0.2,2.7v1.4v1.4l0.1,16.8h9.4l-0.9-35.2h-11.3l-6.8,13.8c-0.3,0.5-0.6,1.1-0.8,1.6c-0.3,0.5-0.5,1-0.6,1.5
      c-0.2,0.4-0.3,0.8-0.4,1.1c-0.1,0.3-0.3,0.7-0.3,1.1l-0.4-2.9l-0.5-2.6l-2.5-13.7h-11.4L990.3,93.2z M897.1,246.4
      c-9.2-5.4-18.9-9.7-29-12.4c-10.5-2.7-21-4.3-31.9-4.3c-21.9,0-39.5,5-53,15.1c-13.9,10.1-20.6,22.5-20.6,37.6
      c0,9.7,2.9,17.4,8.4,24c5.5,6.2,14.7,12.4,28.2,17.4l11.8,4.6c16.4,6.2,24.8,12.4,24.8,18.2c0,3.9-1.7,7-5.5,9.3
      c-3.8,2.7-8.4,3.9-14.3,3.9c-7.1,0-14.3-1.2-22.3-3.9c-8.4-3.1-18.1-7.7-29-13.9l-20.2,37.6c10.9,6.6,22.3,11.2,34.5,14.3
      c12.2,3.5,24.8,5,37.8,5c23.5,0,42-5,55.9-15.1s21-23.6,21-39.9c0-10.5-3.4-19.4-10.1-26.3c-6.3-7-18.1-13.9-34.5-20.5
      c-1.7-0.8-2.9-1.5-3.4-1.5c-0.4,0-3.4-1.2-8.8-3.1c-11.8-4.3-17.7-8.5-17.7-13.2c0-3.5,1.7-6.2,5.5-8.5c3.4-2.3,8-3.5,13.4-3.5
      c3.4,0,6.7,0.4,10.1,0.8c3.4,0.8,6.3,1.5,9.7,2.7c6.7,2.7,13.9,6.6,21.4,11.2L897.1,246.4z M529.3,393.2h60.1l12.2-74
      c2.5-15.5,6.7-26.7,13-33.3c5.9-7,13.9-10.5,24.4-10.5c7.6,0,13.4,1.5,17.7,5c3.8,3.9,5.9,8.9,5.9,15.9l-0.4,5.8l-1.3,7l-14.3,84
      H708l14.3-83.3v-2.7c2.1-12.8,2.9-22.1,2.9-27.1c0-15.9-5-28.3-14.7-37.2s-23.5-13.2-41.6-13.2c-10.9,0-21,2.3-30.3,7.4
      c-9.7,4.6-18.9,12.4-28.2,22.5l4.2-24.8h-58L529.3,393.2z M419.2,393.2h60.9l27.3-158.4c-18.6,13.6-42.7,13.6-61.4,0L419.2,393.2z
        M266.7,393.2h60.1l12.2-72.4c2.5-13.9,7.1-24.4,13.9-31.4c6.7-6.6,16-9.7,27.3-9.7l9.2,0.4l10.9,1.9l12.2-50l-7.6-1.2h-4.2
      c-12.2,0-22.7,2.7-31.5,8.1c-9.2,5-16,12.8-21.4,22.9l4.2-27.1h-58L266.7,393.2z M643.7,37.4h22.9l1.4-8.4h-12.6L660,2.2h-10.3
      L643.7,37.4z M851.6,37.4h10.2l4.6-27h8.2l1.4-8.2h-26.9l-1.5,8.2h8.6L851.6,37.4z M876.3,37.4h10.4l6-35.2h-10.4L876.3,37.4z
        M693.6,93.2h10.2l2.3-13.7h11.1l1.4-7.6h-11.1l1-5.8h11.9l1.4-8.1h-22.1L693.6,93.2z M728.8,58l-2.6,15c-0.4,2.4-0.7,4.5-0.9,6.2
      c-0.2,1.7-0.3,3-0.3,4c0,3.3,1.4,6,4.1,8c2.8,2,6.4,3,11,3c3.5,0,6.6-0.6,9.2-1.8c2.6-1.2,4.6-3,6-5.2c1.2-1.8,2.1-4.9,2.8-9.2
      l3.4-20h-10.2L749,70.9l-0.1,0.3c-1.7,9.7-4.4,14.5-8.4,14.5c-0.8,0-1.5-0.1-2.2-0.3c-0.6-0.2-1.2-0.5-1.7-1
      c-0.9-0.8-1.4-2-1.4-3.6l0.1-2l0.5-3.2l3-17.6H728.8z M775.2,85.4l1-5.8h11l1.3-7.7h-11l1-5.8h11.8l1.4-8.1h-22l-6,35.2h22l1.4-7.8
      H775.2z M793.5,93.2h22.9l1.4-8.4h-12.6l4.6-26.8h-10.3L793.5,93.2z M842,81.1l-5.3,7.1c1.8,2,3.8,3.4,6,4.5c2.3,1,4.6,1.5,7.2,1.5
      c4.8,0,8.7-1.1,11.5-3.4c2.8-2.3,4.3-5.3,4.3-9c0-2.1-0.5-3.9-1.6-5.3c-1-1.4-2.9-2.8-5.5-4.2l-2.2-1.1c-2.6-1.2-3.9-2.3-3.9-3.3
      c0-0.8,0.3-1.5,1-2c0.6-0.5,1.5-0.8,2.6-0.8c1,0,2,0.3,3.2,0.8c1.2,0.5,2.4,1.4,3.7,2.4l4.4-6.9c-1.7-1.4-3.6-2.4-5.5-3.1
      c-1.9-0.7-4-1-6.1-1c-4,0-7.3,1.1-9.9,3.3c-2.5,2.3-3.8,5.1-3.8,8.6c0,1.9,0.6,3.5,1.7,4.8c1.1,1.4,3.2,2.7,6.1,4.2l0.7,0.4
      c3.1,1.5,4.6,2.9,4.6,4.2c0,1-0.4,1.7-1.2,2.3c-0.8,0.6-1.8,0.9-3,0.9c-1.5,0-3.1-0.4-4.5-1.1C845.1,83.9,843.6,82.7,842,81.1z
        M1046.3,81.1l-5.3,7.1c1.8,2,3.8,3.4,6,4.5c2.3,1,4.6,1.5,7.2,1.5c4.8,0,8.7-1.1,11.5-3.4c2.8-2.3,4.3-5.3,4.3-9
      c0-2.1-0.5-3.9-1.6-5.3c-1-1.4-2.9-2.8-5.5-4.2l-2.2-1.1c-2.6-1.2-3.9-2.3-3.9-3.3c0-0.8,0.3-1.5,1-2c0.6-0.5,1.5-0.8,2.6-0.8
      c1,0,2,0.3,3.2,0.8c1.2,0.5,2.4,1.4,3.7,2.4l4.4-6.9c-1.7-1.4-3.6-2.4-5.5-3.1c-1.9-0.7-4-1-6.1-1c-4,0-7.3,1.1-9.9,3.3
      c-2.5,2.3-3.8,5.1-3.8,8.6c0,1.9,0.6,3.5,1.7,4.8c1.1,1.4,3.2,2.7,6.1,4.2l0.7,0.4c3.1,1.5,4.6,2.9,4.6,4.2c0,1-0.4,1.7-1.2,2.3
      c-0.8,0.6-1.8,0.9-3,0.9c-1.5,0-3.1-0.4-4.5-1.1C1049.4,83.9,1047.9,82.7,1046.3,81.1z" />
  <path fill="#FFC846" d="M512.9,205.2c19.1-15.3,25-39.7,13.1-54.5c-11.9-14.8-37-14.5-56.1,0.8c-19.1,15.3-25,39.7-13.1,54.5
      C468.7,220.8,493.8,220.5,512.9,205.2z M2,83.7c152.8-37.6,291.8-40.2,442-12.5c31.1,5.7,152.8,26.9,150.3,73.2
      c-2.8,17-15.6,25.8-33,31.5c31.2-7.4,68.1-15.7,86.5-42c23.9-48.4-101.3-80.4-134.2-86.5C454.2,36.1,398.8,29.5,343,27.5
      C228.8,23.3,97.8,27.8,2,83.7z" />
</g>
</svg>